<?xml version="1.0" encoding="iso-8859-1"?>
<!-- Generator: Adobe Illustrator 19.0.0, SVG Export Plug-In . SVG Version: 6.00 Build 0)  -->
<svg version="1.1" id="Capa_1" xmlns="http://www.w3.org/2000/svg" xmlns:xlink="http://www.w3.org/1999/xlink" x="0px" y="0px"
	 viewBox="0 0 512 512" style="enable-background:new 0 0 512 512;" xml:space="preserve">
<g>
	<path style="fill:#A773B4;" d="M97.103,0h317.793c9.751,0,17.655,7.904,17.655,17.655v141.241H79.448V17.655
		C79.448,7.904,87.353,0,97.103,0z"/>
	<path style="fill:#D77EB0;" d="M432.652,135.862c-9.283,7.848-23.109,6.957-31.309-2.016c-4.903-5.755-8.957-12.183-12.037-19.087
		h-0.035c-8.821,16.316-25.876,26.483-44.423,26.483c-18.548,0-35.602-10.167-44.424-26.483
		c-8.822,16.315-25.877,26.482-44.425,26.482c-18.548,0-35.603-10.167-44.425-26.482c-8.567,16.558-25.786,26.822-44.427,26.483
		c-18.639,0.34-35.856-9.924-44.42-26.483h-0.035c-3.08,6.905-7.134,13.332-12.037,19.087c-8.2,8.974-22.026,9.864-31.309,2.016
		c-30.315,74.941-50.926,171.389,33.857,339.974c11.195,22.181,33.926,36.168,58.772,36.164h168.047
		c24.846,0.004,47.577-13.983,58.772-36.164C483.578,307.251,462.967,210.803,432.652,135.862z"/>
	<path style="fill:#A773B4;" d="M432.552,88.218l7.865,23.35c2.872,10.243-1.596,21.126-10.838,26.395
		c-9.241,5.269-20.883,3.572-28.235-4.117c-4.916-5.773-8.98-12.22-12.067-19.146l-0.005,0.058
		c-8.821,16.316-25.876,26.483-44.423,26.483s-35.602-10.167-44.423-26.483c-8.822,16.316-25.877,26.483-44.425,26.483
		c-18.548,0-35.604-10.167-44.425-26.483c-8.567,16.558-25.786,26.822-44.425,26.483c-18.639,0.34-35.857-9.924-44.421-26.483
		l-0.004-0.058c-3.087,6.925-7.151,13.373-12.067,19.146c-7.352,7.689-18.994,9.387-28.235,4.117s-13.71-16.152-10.838-26.395
		l7.864-23.35H432.552z"/>
	<path style="fill:#944143;" d="M79.448,52.966h353.103c9.751,0,17.655,7.904,17.655,17.655l0,0c0,9.751-7.904,17.655-17.655,17.655
		H79.448c-9.751,0-17.655-7.904-17.655-17.655l0,0C61.793,60.87,69.698,52.966,79.448,52.966z"/>
	<path style="fill:#FFFFFF;" d="M167.724,229.517h176.552c9.751,0,17.655,7.904,17.655,17.655v97.103
		c0,9.751-7.905,17.655-17.655,17.655H167.724c-9.751,0-17.655-7.905-17.655-17.655v-97.103
		C150.069,237.422,157.973,229.517,167.724,229.517z"/>
	<g>
		<path style="fill:#944143;" d="M317.793,282.483H194.207c-4.875,0-8.828-3.952-8.828-8.828s3.952-8.828,8.828-8.828h123.586
			c4.875,0,8.828,3.952,8.828,8.828S322.668,282.483,317.793,282.483z"/>
		<path style="fill:#944143;" d="M317.793,326.621H194.207c-4.875,0-8.828-3.952-8.828-8.828s3.952-8.828,8.828-8.828h123.586
			c4.875,0,8.828,3.952,8.828,8.828S322.668,326.621,317.793,326.621z"/>
	</g>
</g>
<g>
</g>
<g>
</g>
<g>
</g>
<g>
</g>
<g>
</g>
<g>
</g>
<g>
</g>
<g>
</g>
<g>
</g>
<g>
</g>
<g>
</g>
<g>
</g>
<g>
</g>
<g>
</g>
<g>
</g>
</svg>
